<?xml version="1.0" encoding="utf-8"?>
<!-- Generator: Adobe Illustrator 24.1.1, SVG Export Plug-In . SVG Version: 6.00 Build 0)  -->
<svg version="1.1" id="Layer_1" xmlns="http://www.w3.org/2000/svg" xmlns:xlink="http://www.w3.org/1999/xlink" x="0px" y="0px"
	 viewBox="0 0 1455 504" style="enable-background:new 0 0 1455 504;" xml:space="preserve">
<style type="text/css">
	.st0{display:none;}
	.st1{fill:#FA5252;}
	.st2{fill:none;}
</style>
<image style="display:none;overflow:visible;" width="450" height="168" xlink:href="3A0F23C3.jpg"  transform="matrix(3.7178 0 0 3.7178 -81 -65.9667)">
</image>
<path class="st0" d="M504.6,512.9c-168.4,0-336.7,0-505,0c0-170.7,0-341.4,0-512c168.4,0,336.7,0,505,0
	C504.6,171.6,504.6,342.2,504.6,512.9z M180.3,368.3c-2.3,0.2-3.6,0.5-4.9,0.5c-29,0-58,0-87,0c-4.9,0-5-0.1-5-5.6
	c0-75.7,0-151.3-0.1-227c0-3.7,1.3-5.7,4.5-7.4c53.3-27.1,106.6-54.3,159.8-81.6c4.2-2.2,7.5-2,11.5,0.1c12.9,6.9,26,13.5,39.1,20.2
	C337.6,87.7,377,108,416.6,128c4.6,2.3,6,5,6,10c-0.2,75-0.1,150-0.1,225c0,5.2-0.2,5.4-5.3,5.4c-20.2,0-40.3,0-60.5,0
	c-2.3,0-4.7,0-7,0.4c-3.9,0.6-6.1,3.5-6.1,7.4c0,3.7,2.3,6.8,6,7.5c1.6,0.3,3.3,0.2,5,0.2c21,0,42-0.3,63,0.1
	c12,0.2,20.4-6.1,20.3-20c-0.3-74.7-0.4-149.3,0.2-224c0.1-13.5-4.6-20.9-16.4-26.8c-52.6-26.3-104.9-53.3-157.2-80.1
	c-7-3.6-13.5-3.7-20.5,0c-18.2,9.5-36.5,18.7-54.7,28C153,79.5,116.6,98,80.3,116.5c-7.2,3.6-10.9,9-10.9,17.4
	c0.1,77.3,0.1,154.7,0.1,232c0,12.7,6,18.7,18.7,18.8c33.3,0.1,66.7,0,100,0c8.2,0,11.8-3.7,9.8-11.6c-1.9-7.5-4.4-15.2-8.4-21.7
	c-9.6-16-19.8-31.6-30.4-46.9c-17.6-25.3-24.7-52.9-20.5-83.3c8.6-61.6,66.2-105.3,127.8-97.1C353,135.7,395,235.6,343,305.9
	c-12.8,17.3-25.2,34.9-33.9,54.7c-1.9,4.3-4.4,6.8-8.9,8.4c-30.3,10.8-60.5,21.8-90.7,32.7c-6.1,2.2-12.3,4.3-18.3,6.7
	c-5.2,2.1-6.9,7.1-4.4,11.8c2,3.8,5.5,4.4,9.4,4.4c21.3,0,42.7,0,64,0c2.6,0,5.2,0,7.7,0c0.1,0.3,0.1,0.7,0.2,1
	c-1.5,0.6-2.9,1.3-4.4,1.9c-22.7,8.4-45.3,16.7-68,25c-1.6,0.6-3.2,1.1-4.5,2c-2.8,1.9-4.4,4.6-3.8,8.1c0.7,3.4,3.3,4.8,6.4,5.4
	c1.8,0.4,3.6,0.5,5.5,0.7c10.3,0.9,20.6,1.8,30.9,2.7c7.6,0.6,15.3,1.4,22.9,1.8c4.7,0.3,7.9-2.7,8.3-6.9c0.4-4.1-2.5-7.6-6.9-8.4
	c-1.6-0.3-3.3-0.2-5-0.4c-5.8-0.6-11.5-1.2-17.3-1.8c1.1-1.4,2.1-1.9,3.2-2.3c16.1-5.9,32.2-11.9,48.3-17.8c9.7-3.6,19.4-7,29-10.9
	c2.6-1,5.5-3,6.7-5.4c2.8-5.6-1.3-10.6-8.2-10.6c-22.7-0.1-45.3,0-68-0.1c-1.9,0-3.8,0-5.7,0c0-0.3-0.1-0.7-0.1-1
	c3.5-1.3,7.1-2.7,10.6-4c21.3-7.7,42.6-15.5,63.9-23.1c4.6-1.6,7.7-4.1,8.8-9.1c0.7-3,2-6.1,3.7-8.7c9.9-15.8,19.3-31.9,30.1-47.2
	c15.6-22.1,25-46.2,26.1-73.3c3.3-82-68.8-146.1-149.8-133.5C136.1,123.6,89.6,234,145,312.2c9.2,13,17.9,26.5,26.6,39.9
	C174.8,357,177.2,362.5,180.3,368.3z M213,208.7c0.2-0.1,0.5-0.1,0.7-0.2c0.7,1.2,1.4,2.4,2,3.7c7.9,16.5,15.9,33,23.7,49.6
	c5.4,11.4,5.3,11.3,17.9,11.1c3,0,4.4-1.1,5.6-3.7c9.3-19,18.8-37.9,28.2-56.8c0.7-1.4,1.5-2.7,2.8-5c0.3,1.8,0.5,2.4,0.5,3
	c0,9.2,0,18.3,0,27.5c0,15.8-0.1,31.7,0,47.5c0,3.7-1.2,5.6-5.1,5.6c-3,0-6,0.4-8.9,0.9c-4,0.6-2.1,3.8-2.4,6
	c-0.3,2.1,0.5,3.5,3,3.5c13.2-0.1,26.3,0,39.5-0.2c1,0,2.7-1.8,2.9-2.9c1-5.5,0-6.4-6.4-7.1c-7.3-0.8-7.3-0.8-7.3-8.1
	c0-27.2,0-54.3,0-81.5c0-10.1,0-10.3,10.1-11.7c4.3-0.6,3.7-3.2,3.9-6.1c0.2-3.2-1.5-3.9-4.3-3.9c-7.7,0.1-15.3,0.2-23-0.1
	c-3.9-0.2-5.9,1.2-7.6,4.8c-10.8,22.9-21.9,45.7-32.9,68.5c-0.7,1.5-1.7,2.9-2.9,5.1c-1.4-2.9-2.4-4.8-3.3-6.7
	c-10.4-22.4-20.8-44.7-31-67.1c-1.5-3.2-3.2-4.5-6.8-4.4c-7.5,0.2-15,0-22.5,0.1c-5.6,0-5.7,0.4-5.7,6c0,4.5,2.9,4,5.7,4.3
	c7.7,0.8,7.7,0.8,7.7,8.4c0,28.7,0.1,57.3-0.1,86c0,5.4,1.8,9,5.9,12.3c13,10.5,25.6,21.3,38.5,31.8c3,2.5,4.3,5,4.2,8.9
	c-0.2,7.8-0.2,15.7,0,23.5c0.2,6,4.1,9.1,9.5,8c3.8-0.8,5.9-3.6,6-8.6c0.1-10.2,0-20.3,0.1-30.5c0-3.8-1.6-6.5-4.5-8.9
	c-13.6-11-26.9-22.3-40.5-33.4c-2.7-2.2-3.8-4.6-3.8-8.1c0.1-22.2,0.1-44.3,0.1-66.5C212.8,211.5,212.9,210.1,213,208.7z"/>
<path class="st1" d="M170.4,384c-3.5-6.6-6.2-12.8-9.8-18.4c-9.8-15.2-19.7-30.5-30.2-45.3c-62.8-88.6-10.1-213.8,97.2-230.5
	c91.9-14.3,173.6,58.5,169.9,151.4c-1.2,30.7-11.9,58-29.6,83.1c-12.2,17.2-22.9,35.5-34.1,53.5c-1.9,3-3.4,6.4-4.2,9.9
	c-1.3,5.7-4.8,8.5-10,10.4c-24.2,8.6-48.3,17.4-72.5,26.2c-4,1.5-8,3-12,4.5c0,0.4,0.1,0.8,0.1,1.2c2.1,0,4.3,0,6.4,0
	c25.7,0,51.4,0,77.1,0.1c7.9,0,12.5,5.7,9.3,12c-1.3,2.7-4.7,4.9-7.6,6.1c-10.9,4.4-21.9,8.3-32.9,12.3
	c-18.3,6.7-36.5,13.5-54.8,20.2c-1.2,0.4-2.4,1-3.6,2.6c6.5,0.7,13.1,1.4,19.6,2c1.9,0.2,3.8,0.1,5.6,0.4c5,0.9,8.2,4.8,7.8,9.5
	c-0.4,4.8-4.1,8.1-9.4,7.8c-8.7-0.5-17.3-1.3-26-2c-11.7-1-23.3-2-35-3.1c-2.1-0.2-4.2-0.3-6.2-0.8c-3.5-0.7-6.5-2.3-7.3-6.2
	c-0.8-4,1.1-7,4.3-9.2c1.5-1.1,3.4-1.6,5.1-2.3c25.7-9.5,51.4-18.9,77.1-28.4c1.7-0.6,3.3-1.4,5-2.1c-0.1-0.4-0.1-0.8-0.2-1.2
	c-2.9,0-5.9,0-8.8,0c-24.2,0-48.4,0-72.6,0c-4.4,0-8.3-0.6-10.6-5c-2.8-5.4-0.9-11,5-13.4c6.8-2.7,13.8-5.1,20.7-7.6
	c34.3-12.4,68.5-24.9,102.9-37.1c5.1-1.8,7.9-4.6,10.1-9.5c9.9-22.4,23.9-42.4,38.4-62c59-79.7,11.3-193-86.9-206.1
	c-69.8-9.4-135.2,40.2-144.9,110.1c-4.8,34.5,3.3,65.9,23.2,94.5c12.1,17.4,23.6,35.1,34.5,53.2c4.5,7.5,7.4,16.2,9.5,24.7
	c2.3,9-1.8,13.2-11.1,13.2c-37.8,0-75.6,0.1-113.4,0c-14.4,0-21.2-6.9-21.2-21.3c0-87.7,0.1-175.4-0.1-263.1
	c0-9.6,4.3-15.7,12.4-19.8c41.2-21,82.5-42.1,123.7-63.1c20.7-10.6,41.5-21,62.1-31.8c7.9-4.1,15.3-4,23.2,0
	c59.3,30.4,118.6,61,178.3,90.9c13.4,6.7,18.8,15.1,18.6,30.4c-0.7,84.7-0.5,169.4-0.2,254c0.1,15.8-9.5,23-23.1,22.7
	c-23.8-0.5-47.6-0.1-71.4-0.1c-1.9,0-3.8,0.1-5.6-0.3c-4.2-0.8-6.9-4.3-6.8-8.5c0-4.4,2.5-7.6,6.9-8.4c2.6-0.4,5.3-0.4,7.9-0.4
	c22.9,0,45.7,0,68.6,0c5.8,0,6-0.2,6-6.1c0-85.1-0.1-170.1,0.1-255.2c0-5.7-1.6-8.7-6.8-11.3c-44.9-22.6-89.6-45.6-134.3-68.5
	c-14.8-7.6-29.7-15-44.3-22.9c-4.6-2.5-8.3-2.6-13.1-0.2c-60.3,31-120.8,61.8-181.2,92.6c-3.7,1.9-5.2,4.2-5.2,8.3
	c0.1,85.8,0.1,171.6,0.1,257.5c0,6.3,0.1,6.4,5.7,6.4c32.9,0,65.8,0,98.7,0C166.3,384.5,167.8,384.2,170.4,384z"/>
<path class="st1" d="M207.5,202.9c-0.1,1.6-0.3,3.2-0.3,4.8c0,25.1,0.1,50.3-0.1,75.4c0,4,1.2,6.7,4.3,9.2
	c15.4,12.6,30.5,25.3,45.9,37.9c3.4,2.7,5.2,5.8,5.1,10.1c0,11.5,0.1,23.1-0.1,34.6c-0.1,5.7-2.4,8.9-6.8,9.8
	c-6.1,1.2-10.6-2.3-10.8-9.1c-0.3-8.9-0.3-17.8,0-26.6c0.1-4.4-1.3-7.3-4.7-10.1c-14.7-11.9-29-24.2-43.7-36.1
	c-4.7-3.8-6.7-7.9-6.7-14c0.2-32.5,0.1-65,0.1-97.5c0-8.5,0-8.6-8.8-9.5c-3.1-0.3-6.5,0.2-6.5-4.9c0.1-6.3,0.2-6.7,6.5-6.8
	c8.5,0,17,0.2,25.5-0.1c4-0.1,6,1.3,7.7,5c11.6,25.4,23.4,50.8,35.1,76.1c1,2.2,2.1,4.4,3.7,7.6c1.4-2.4,2.4-4,3.3-5.7
	c12.5-25.9,25-51.7,37.3-77.6c1.9-4,4.1-5.6,8.6-5.4c8.7,0.3,17.4,0.2,26.1,0.1c3.2,0,5,0.7,4.9,4.4c-0.2,3.2,0.5,6.3-4.4,6.9
	c-11.4,1.5-11.4,1.7-11.4,13.2c0,30.8,0,61.6,0,92.4c0,8.3,0,8.3,8.3,9.2c7.3,0.8,8.4,1.9,7.3,8.1c-0.2,1.3-2.2,3.3-3.3,3.3
	c-14.9,0.2-29.9,0.1-44.8,0.2c-2.9,0-3.7-1.5-3.4-3.9c0.3-2.5-1.8-6.1,2.7-6.8c3.4-0.5,6.8-1,10.1-1c4.5,0,5.8-2.1,5.8-6.3
	c-0.1-18,0-35.9-0.1-53.9c0-10.4,0-20.8,0-31.2c0-0.7-0.2-1.4-0.6-3.4c-1.5,2.6-2.4,4.1-3.2,5.7c-10.7,21.5-21.4,42.9-32,64.5
	c-1.4,2.9-3,4.2-6.4,4.2c-14.3,0.2-14.2,0.3-20.3-12.6c-8.9-18.8-17.9-37.5-26.9-56.2c-0.7-1.4-1.5-2.8-2.3-4.2
	C208.1,202.8,207.8,202.8,207.5,202.9z"/>
<g>
	<rect x="511.6" y="137.5" class="st2" width="416.8" height="142.5"/>
	<path class="st1" d="M517.1,138.5h20.6c19.4,0,33,11.6,33,28.1c0,16.5-13.6,28.2-33,28.2h-20.6V138.5z M539.8,182.1
		c9.6,0,16.5-6.5,16.5-15.5c0-9-6.9-15.4-16.5-15.4h-8.7v30.9H539.8z"/>
	<path class="st1" d="M587.2,170.1v-31.7h14v31c0,8,5.1,13.6,12.1,13.6c7.1,0,12.2-5.7,12.2-13.6v-31h13.9v31.7
		c0,15.1-10.7,25.7-26.2,25.7C598,195.8,587.2,185.2,587.2,170.1z"/>
	<path class="st1" d="M699,182.3v12.5h-41.1v-56.3h13.9v43.8H699z"/>
	<path class="st1" d="M714.4,170.1v-31.7h14v31c0,8,5.1,13.6,12.1,13.6c7.1,0,12.2-5.7,12.2-13.6v-31h13.9v31.7
		c0,15.1-10.7,25.7-26.2,25.7C725.2,195.8,714.4,185.2,714.4,170.1z"/>
	<path class="st1" d="M799.4,151h-17.1v-12.5h48.2V151h-17.1v43.8h-14V151z"/>
	<path class="st1" d="M897.3,138.5v56.3h-14v-22.5h-23v22.5h-14v-56.3h14v21.3h23v-21.3H897.3z"/>
</g>
<g>
	<rect x="511.6" y="226.4" class="st2" width="1064.4" height="148.5"/>
	<path class="st1" d="M660.5,242.9v99.8c5.6,1,8.9,1.8,10,2.1c1.9,0.3,2.8,1.4,2.8,3.1v7.7h-42v-7.7c0-1.8,0.9-2.8,2.6-3.1l11.7-2.1
		v-79.3c0-3.6,0.1-6.4,0.4-8.2L603,333.5c-1.4,2.7-3.4,4-5.9,4h-2.5c-2.8,0-4.9-1.3-6.3-4l-43.6-78.2c0.3,2.9,0.5,5.5,0.5,7.9v79.5
		l11.9,2.1c1.5,0.3,2.3,1.4,2.3,3.1v7.7h-41.8v-7.7c0-1.8,0.9-2.8,2.8-3.1l9.8-2.1v-99.8c-5.4-1-8.6-1.8-9.8-2.1
		c-1.9-0.4-2.8-1.4-2.8-3.2v-7.7h25.2c1.6,0,2.8,0.2,3.5,0.5c1,0.5,1.8,1.2,2.3,2.3l43.2,77.4c1,1.9,2.4,4.9,4,9.1
		c0.9-2.7,2.3-5.8,4-9.3l42.3-77.2c0.5-0.9,1.3-1.7,2.5-2.3c0.7-0.4,1.9-0.5,3.5-0.5h25.2v7.7c0,1.8-0.9,2.8-2.8,3.2L660.5,242.9z"
		/>
	<path class="st1" d="M760.8,345.5c0.5,0.6,0.7,1.4,0.7,2.2v7.5h-18.2c-1.1,0-2.3-0.2-3.7-0.7c-0.8-0.2-1.4-1.2-1.8-2.8l-1.8-8.4
		l-7,5.8c-2,1.6-4.3,3-7,4.2c-2.6,1.2-5.1,2-7.7,2.6c-2.3,0.6-5.5,0.9-9.5,0.9c-3.3,0-6.4-0.5-9.5-1.6c-3.6-1.3-6.2-2.7-7.9-4.2
		c-2.1-1.9-3.8-4.3-5.3-7.4c-1.3-2.7-1.9-6.2-1.9-10.5c0-3.7,0.9-7.1,2.8-10.1c2.1-3.4,5.3-6.3,9.5-8.8c4.7-2.7,10.3-4.8,16.8-6.3
		c6.8-1.5,15.3-2.3,25.5-2.3v-6.8c0-6.9-1.5-12.1-4.5-15.8c-3-3.6-7.4-5.4-13.1-5.4c-3.7,0-6.9,0.5-9.6,1.6c-3,1.2-5.3,2.2-6.7,3.1
		c-0.7,0.5-1.5,1-2.4,1.5c-0.9,0.5-1.8,1.1-2.7,1.7c-1.3,0.9-2.6,1.4-4,1.4c-1.3,0-2.2-0.2-2.8-0.7c-0.7-0.6-1.3-1.3-1.8-2.1
		l-2.8-4.9c4.5-4.4,9.8-7.9,15.8-10.5c5.4-2.3,11.7-3.5,18.9-3.5c5.3,0,9.7,0.8,13.3,2.5c4,1.8,7.2,4,9.6,6.6
		c2.6,2.7,4.6,6.2,6,10.5c1.3,3.9,1.9,8.4,1.9,13.7v44.3c5.6,1.2,8.5,1.8,8.8,1.9v-0.4C759.7,344.5,760.4,344.9,760.8,345.5z
		 M716.5,316.9c-4.4,0.8-8.5,2-12.3,3.7c-3.3,1.5-5.6,3.3-7,5.3c-1.4,2.1-2.1,4.3-2.1,6.7c0,1.9,0.4,3.8,1.2,5.9
		c0.7,1.8,1.8,3.2,3.2,4.2c1.4,1,2.9,1.8,4.5,2.3c2,0.6,3.9,0.9,5.8,0.9c2.3,0,4.8-0.3,7.4-0.9c2.3-0.6,4.5-1.3,6.5-2.3
		c1.8-0.8,3.7-2.1,5.8-3.8c1.2-0.9,2.9-2.6,5.3-4.9v-18.2C727.2,315.7,721.1,316.1,716.5,316.9z"/>
	<path class="st1" d="M860,347.9v7.7h-16.5c-2.2,0-4.2-1-6-3.2l-29-36.4c-0.8-1.2-1.7-1.9-2.6-2.3c-0.9-0.3-2.3-0.5-4-0.5h-4.2v29.6
		c0.7,0,2.7,0.4,6.1,1.2l3.7,0.7c1.9,0.3,2.8,1.5,2.8,3.3v7.5h-41v-7.5c0-1.9,0.9-3,2.6-3.3l10-1.9V239.4c-5.6-1-8.9-1.8-10-2.1
		c-1.8-0.4-2.6-1.4-2.6-3.2v-7.5h28.4v75.8h3.8c2.5,0,4.3-0.8,5.6-2.5l19.9-21.3c-0.3,0-0.7-0.1-1-0.2c-0.3-0.1-0.7-0.2-1-0.2
		l-2.8-0.5c-1.9-0.3-2.8-1.5-2.8-3.3V267h37.1v7.3c0,1.8-0.8,2.8-2.3,3.2l-10.8,2.1l-20.7,22c-1.9,2.2-3.6,3.8-5.1,4.7
		c2.3,1.5,4.1,3.3,5.3,5.4l24.5,31.2l4.5,0.7c3,0.7,4.9,1.1,5.6,1.1h-0.2C859.2,345.1,860,346.1,860,347.9z"/>
	<path class="st1" d="M916.9,268.3c4.7,1.8,8.5,4.3,11.5,7.5c3.5,3.7,6.1,7.9,7.7,12.4c1.9,5.3,2.8,10.8,2.8,16.8
		c0,2.7-0.2,4.3-0.7,4.9c-0.6,0.8-1.6,1.2-3.1,1.2h-58.8c0,5.6,0.7,10.5,2.1,14.7c1.2,3.6,3.2,7,6,10.2c2.6,2.9,5.5,5,8.8,6.3
		c3.5,1.4,7.2,2.1,11.2,2.1c4.2,0,7.6-0.4,10.1-1.2c2.5-0.8,4.9-1.8,7.4-3c2.6-1.3,4.3-2.2,5.3-2.8c1.5-0.9,2.7-1.4,3.5-1.4
		c1.3,0,2.3,0.5,3,1.6l4.4,5.8c-1.6,2.1-4,4.1-7,6c-3.5,2.2-6.4,3.7-8.6,4.4c-3.5,1.2-6.6,2-9.5,2.5c-3.5,0.6-6.7,0.9-9.6,0.9
		c-6.1,0-11.7-1.1-17-3.2c-5-2-9.5-5.1-13.5-9.3c-3.7-3.8-6.7-8.8-8.8-14.9c-2.1-5.9-3.2-12.7-3.2-20.3c0-6.1,1-11.8,3-17.1
		c2-5.5,4.7-10.2,8.2-14c3.6-4,8-7.1,13.1-9.3c5.1-2.2,10.8-3.3,17.1-3.3C907.5,265.6,912.4,266.5,916.9,268.3z M885.1,283.5
		c-4.3,4.5-7,10.6-8.1,18.2h48.1c0-3.6-0.5-6.9-1.6-9.8c-1.3-3.6-2.7-6.2-4.2-7.9c-2-2.1-4.4-3.8-7.2-5.1c-2.7-1.2-5.9-1.8-9.6-1.8
		l0.2-0.2C895.2,277,889.3,279.2,885.1,283.5z"/>
	<path class="st1" d="M1001.6,265.3c4.5,0,8.6,1,12.1,3.1l-1.9,11.7c-0.4,1.5-1.1,2.3-2.3,2.3c-0.8,0-2.2-0.3-4.2-0.9
		c-2-0.6-4.4-0.9-7.2-0.9c-10.3,0-17.8,6.2-22.8,18.6V343l10,1.9c1.8,0.3,2.6,1.5,2.6,3.3v7.3h-40.8v-7.3c0-1.9,0.9-3,2.6-3.3
		l10-1.9v-63.2c-5.6-1-8.9-1.8-10-2.1c-1.8-0.3-2.6-1.5-2.6-3.3V267h21.5c1.6,0,2.7,0.3,3.3,0.9c0.6,0.6,1,1.7,1.4,3.3l1,13.8h0.2
		C981.2,271.9,990.2,265.3,1001.6,265.3z"/>
	<path class="st1" d="M1098.9,317.4c0,11.6-3.6,20.9-10.8,28.2c-7.6,7.6-18,11.4-31.2,11.4c-5.5,0-11.2-0.5-17.1-1.6
		c-4.7-0.8-9.3-1.9-14-3.3l-5.1-1.8v-31.5h8.6c2,0,3.1,1,3.5,3c0.2,0.9,0.5,3.8,0.9,8.6l0.5,7.7c9.1,3.3,16.2,4.9,21.4,4.9
		c5.1,0,9.5-0.6,13-1.8c3.4-1.1,6.1-2.6,8-4.7c4.4-4.1,6.6-9.6,6.6-16.6c0-6.8-3.1-11.9-9.4-15.4c-2.8-1.8-6-3.2-9.5-4.2
		c-12.5-3.9-19.8-6.3-22-7.4c-3.4-1.5-6.6-3.6-9.6-6.3c-6.2-5.5-9.3-13.3-9.3-23.5c0-9.2,3.3-17.1,10-23.8c7.2-7,16.6-10.5,28-10.5
		c12.1,0,23.9,2.3,35.2,7v28.9h-8.4c-2.1,0-3.3-1-3.7-3c0-0.4-0.1-1.5-0.3-3.6c-0.2-2-0.5-6-1-12c-8.2-2.2-15-3.3-20.6-3.3
		c-7.6,0-13.4,1.9-17.5,5.6c-4,3.6-6,8.3-6,14c0,6.2,3.2,11,9.5,14.5c2.6,1.6,5.8,3.1,9.8,4.4c10.5,3.5,17.8,6.1,22,7.9h-0.3
		C1092.6,294.9,1098.9,304.3,1098.9,317.4z"/>
	<path class="st1" d="M1165.1,265.3c10.4,0,18.6,3.8,24.5,11.5c6.1,8.2,9.1,19.5,9.1,34c0,13.3-3.4,24.2-10.2,32.7
		c-7.1,8.9-16.1,13.3-27,13.3c-10.8,0-19.4-3.4-25.5-10.3v26.3l4.7,1l5.1,1c1.9,0.3,2.8,1.5,2.8,3.3v7.5h-41v-7.5
		c0-1.9,0.9-3,2.8-3.3l9.8-1.9v-93.1c-5.4-1-8.6-1.8-9.8-2.1c-1.9-0.3-2.8-1.5-2.8-3.3V267h22c2.1,0,3.5,1,4.2,3.1l1.2,10.5h0.2
		C1143.8,270.4,1153.7,265.3,1165.1,265.3z M1156.3,344.7c8.6,0,15.2-2.9,19.6-8.8c4.4-5.8,6.6-14.2,6.6-25.2
		c0-10.9-1.9-19-5.8-24.6c-3.9-5.5-9.5-8.3-17-8.3c-9.2,0-17.1,4.5-23.8,13.5v42.9C1141.3,341.2,1148,344.7,1156.3,344.7z"/>
	<path class="st1" d="M1288.3,345.5c0.5,0.6,0.7,1.4,0.7,2.2v7.5h-18.2c-1.1,0-2.3-0.2-3.7-0.7c-0.8-0.2-1.4-1.2-1.8-2.8l-1.8-8.4
		l-7,5.8c-2,1.6-4.3,3-7,4.2c-2.6,1.2-5.1,2-7.7,2.6c-2.3,0.6-5.5,0.9-9.5,0.9c-3.3,0-6.4-0.5-9.5-1.6c-3.6-1.3-6.2-2.7-7.9-4.2
		c-2.1-1.9-3.8-4.3-5.3-7.4c-1.3-2.7-1.9-6.2-1.9-10.5c0-3.7,0.9-7.1,2.8-10.1c2.1-3.4,5.3-6.3,9.5-8.8c4.7-2.7,10.3-4.8,16.8-6.3
		c6.8-1.5,15.3-2.3,25.5-2.3v-6.8c0-6.9-1.5-12.1-4.5-15.8c-3-3.6-7.4-5.4-13.1-5.4c-3.7,0-6.9,0.5-9.6,1.6c-3,1.2-5.3,2.2-6.7,3.1
		c-0.7,0.5-1.5,1-2.4,1.5c-0.9,0.5-1.8,1.1-2.7,1.7c-1.3,0.9-2.6,1.4-4,1.4c-1.3,0-2.2-0.2-2.8-0.7c-0.7-0.6-1.3-1.3-1.8-2.1
		l-2.8-4.9c4.5-4.4,9.8-7.9,15.8-10.5c5.4-2.3,11.7-3.5,18.9-3.5c5.3,0,9.7,0.8,13.3,2.5c4,1.8,7.2,4,9.6,6.6
		c2.6,2.7,4.6,6.2,6,10.5c1.3,3.9,1.9,8.4,1.9,13.7v44.3c5.6,1.2,8.5,1.8,8.8,1.9v-0.4C1287.1,344.5,1287.8,344.9,1288.3,345.5z
		 M1244,316.9c-4.4,0.8-8.5,2-12.3,3.7c-3.3,1.5-5.6,3.3-7,5.3c-1.4,2.1-2.1,4.3-2.1,6.7c0,1.9,0.4,3.8,1.2,5.9
		c0.7,1.8,1.8,3.2,3.2,4.2c1.4,1,2.9,1.8,4.5,2.3c2,0.6,3.9,0.9,5.8,0.9c2.3,0,4.8-0.3,7.4-0.9c2.3-0.6,4.5-1.3,6.5-2.3
		c1.8-0.8,3.7-2.1,5.8-3.8c1.2-0.9,2.9-2.6,5.3-4.9v-18.2C1254.6,315.7,1248.5,316.1,1244,316.9z"/>
	<path class="st1" d="M1333.9,356.8c-11.2,0-20.4-4-27.7-12.1c-7.6-8.5-11.4-19.7-11.4-33.6c0-13.5,3.6-24.4,10.7-32.7
		c7.5-8.5,17.9-12.8,31.2-12.8c6.7,0,15.4,2.1,26.3,6.3V295h-7c-1.6,0-2.6-0.8-3-2.5c-0.1-0.3-0.4-2.6-0.7-6.7l-0.5-5.8
		c-1.3-0.5-2.5-0.8-3.8-1c-1.2-0.2-2.1-0.4-2.5-0.5c-3.2-0.5-6.4-0.7-9.8-0.7c-3,0-6.2,0.8-9.6,2.3c-3.2,1.4-5.9,3.6-8.2,6.5
		c-4.4,5.8-6.6,14-6.6,24.5s2.3,18.8,7,24.9c4.5,5.8,10.8,8.8,18.7,8.8c7.4,0,13.8-2.5,19.4-7.4c0.9-0.9,2.1-1.4,3.5-1.4
		c1.3,0,2.2,0.5,2.8,1.4l4.2,5.8C1359.5,352.3,1348.5,356.8,1333.9,356.8z"/>
	<path class="st1" d="M1432.1,268.3c4.7,1.8,8.5,4.3,11.5,7.5c3.5,3.7,6.1,7.9,7.7,12.4c1.9,5.3,2.8,10.8,2.8,16.8
		c0,2.7-0.2,4.3-0.7,4.9c-0.6,0.8-1.6,1.2-3.1,1.2h-58.8c0,5.6,0.7,10.5,2.1,14.7c1.2,3.6,3.2,7,6,10.2c2.6,2.9,5.5,5,8.8,6.3
		c3.5,1.4,7.2,2.1,11.2,2.1c4.2,0,7.6-0.4,10.1-1.2c2.5-0.8,4.9-1.8,7.4-3c2.6-1.3,4.3-2.2,5.3-2.8c1.5-0.9,2.7-1.4,3.5-1.4
		c1.3,0,2.3,0.5,3,1.6l4.4,5.8c-1.6,2.1-4,4.1-7,6c-3.5,2.2-6.4,3.7-8.6,4.4c-3.5,1.2-6.6,2-9.5,2.5c-3.5,0.6-6.7,0.9-9.6,0.9
		c-6.1,0-11.7-1.1-17-3.2c-5-2-9.5-5.1-13.5-9.3c-3.7-3.8-6.7-8.8-8.8-14.9c-2.1-5.9-3.2-12.7-3.2-20.3c0-6.1,1-11.8,3-17.1
		c2-5.5,4.7-10.2,8.2-14c3.6-4,8-7.1,13.1-9.3c5.1-2.2,10.8-3.3,17.1-3.3C1422.7,265.6,1427.6,266.5,1432.1,268.3z M1400.3,283.5
		c-4.3,4.5-7,10.6-8.1,18.2h48.1c0-3.6-0.5-6.9-1.6-9.8c-1.3-3.6-2.7-6.2-4.2-7.9c-2-2.1-4.4-3.8-7.2-5.1c-2.7-1.2-5.9-1.8-9.6-1.8
		l0.2-0.2C1410.3,277,1404.5,279.2,1400.3,283.5z"/>
</g>
<g>
</g>
<g>
</g>
<g>
</g>
<g>
</g>
<g>
</g>
<g>
</g>
<g>
</g>
<g>
</g>
<g>
</g>
<g>
</g>
<g>
</g>
<g>
</g>
<g>
</g>
<g>
</g>
<g>
</g>
</svg>
